<svg id="visual" viewBox="0 0 1400 600" width="1400" height="600" xmlns="http://www.w3.org/2000/svg" xmlns:xlink="http://www.w3.org/1999/xlink" version="1.1"><path d="M0 61L23.3 63C46.7 65 93.3 69 140 75C186.7 81 233.3 89 280 96C326.7 103 373.3 109 420 105C466.7 101 513.3 87 560 79C606.7 71 653.3 69 700 79C746.7 89 793.3 111 840 118C886.7 125 933.3 117 980 111C1026.7 105 1073.3 101 1120 98C1166.7 95 1213.3 93 1260 95C1306.7 97 1353.3 103 1376.7 106L1400 109L1400 0L1376.7 0C1353.3 0 1306.7 0 1260 0C1213.3 0 1166.7 0 1120 0C1073.3 0 1026.7 0 980 0C933.3 0 886.7 0 840 0C793.3 0 746.7 0 700 0C653.3 0 606.7 0 560 0C513.3 0 466.7 0 420 0C373.3 0 326.7 0 280 0C233.3 0 186.7 0 140 0C93.3 0 46.7 0 23.3 0L0 0Z" fill="#0e132c"></path><path d="M0 97L23.3 105C46.7 113 93.3 129 140 136C186.7 143 233.3 141 280 149C326.7 157 373.3 175 420 171C466.7 167 513.3 141 560 127C606.7 113 653.3 111 700 122C746.7 133 793.3 157 840 167C886.7 177 933.3 173 980 168C1026.7 163 1073.3 157 1120 154C1166.7 151 1213.3 151 1260 151C1306.7 151 1353.3 151 1376.7 151L1400 151L1400 107L1376.7 104C1353.3 101 1306.7 95 1260 93C1213.3 91 1166.7 93 1120 96C1073.3 99 1026.7 103 980 109C933.3 115 886.7 123 840 116C793.3 109 746.7 87 700 77C653.3 67 606.7 69 560 77C513.3 85 466.7 99 420 103C373.3 107 326.7 101 280 94C233.3 87 186.7 79 140 73C93.3 67 46.7 63 23.3 61L0 59Z" fill="#14204b"></path><path d="M0 277L23.3 284C46.7 291 93.3 305 140 300C186.7 295 233.3 271 280 275C326.7 279 373.3 311 420 315C466.7 319 513.3 295 560 289C606.7 283 653.3 295 700 302C746.7 309 793.3 311 840 316C886.7 321 933.3 329 980 336C1026.7 343 1073.3 349 1120 340C1166.7 331 1213.3 307 1260 300C1306.7 293 1353.3 303 1376.7 308L1400 313L1400 149L1376.7 149C1353.3 149 1306.7 149 1260 149C1213.3 149 1166.7 149 1120 152C1073.3 155 1026.7 161 980 166C933.3 171 886.7 175 840 165C793.3 155 746.7 131 700 120C653.3 109 606.7 111 560 125C513.3 139 466.7 165 420 169C373.3 173 326.7 155 280 147C233.3 139 186.7 141 140 134C93.3 127 46.7 111 23.3 103L0 95Z" fill="#1b2d6b"></path><path d="M0 337L23.3 339C46.7 341 93.3 345 140 338C186.7 331 233.3 313 280 317C326.7 321 373.3 347 420 353C466.7 359 513.3 345 560 341C606.7 337 653.3 343 700 345C746.7 347 793.3 345 840 351C886.7 357 933.3 371 980 382C1026.7 393 1073.3 401 1120 393C1166.7 385 1213.3 361 1260 351C1306.7 341 1353.3 345 1376.7 347L1400 349L1400 311L1376.7 306C1353.3 301 1306.7 291 1260 298C1213.3 305 1166.7 329 1120 338C1073.3 347 1026.7 341 980 334C933.3 327 886.7 319 840 314C793.3 309 746.7 307 700 300C653.3 293 606.7 281 560 287C513.3 293 466.7 317 420 313C373.3 309 326.7 277 280 273C233.3 269 186.7 293 140 298C93.3 303 46.7 289 23.3 282L0 275Z" fill="#1e3279"></path><path d="M0 409L23.3 415C46.7 421 93.3 433 140 429C186.7 425 233.3 405 280 401C326.7 397 373.3 409 420 414C466.7 419 513.3 417 560 419C606.7 421 653.3 427 700 422C746.7 417 793.3 401 840 404C886.7 407 933.3 429 980 445C1026.7 461 1073.3 471 1120 468C1166.7 465 1213.3 449 1260 440C1306.7 431 1353.3 429 1376.7 428L1400 427L1400 347L1376.7 345C1353.3 343 1306.7 339 1260 349C1213.3 359 1166.7 383 1120 391C1073.3 399 1026.7 391 980 380C933.3 369 886.7 355 840 349C793.3 343 746.7 345 700 343C653.3 341 606.7 335 560 339C513.3 343 466.7 357 420 351C373.3 345 326.7 319 280 315C233.3 311 186.7 329 140 336C93.3 343 46.7 339 23.3 337L0 335Z" fill="#1b2d6b"></path><path d="M0 469L23.3 472C46.7 475 93.3 481 140 474C186.7 467 233.3 447 280 447C326.7 447 373.3 467 420 470C466.7 473 513.3 459 560 461C606.7 463 653.3 481 700 479C746.7 477 793.3 455 840 452C886.7 449 933.3 465 980 478C1026.7 491 1073.3 501 1120 500C1166.7 499 1213.3 487 1260 484C1306.7 481 1353.3 487 1376.7 490L1400 493L1400 425L1376.7 426C1353.3 427 1306.7 429 1260 438C1213.3 447 1166.7 463 1120 466C1073.3 469 1026.7 459 980 443C933.3 427 886.7 405 840 402C793.3 399 746.7 415 700 420C653.3 425 606.7 419 560 417C513.3 415 466.7 417 420 412C373.3 407 326.7 395 280 399C233.3 403 186.7 423 140 427C93.3 431 46.7 419 23.3 413L0 407Z" fill="#14204b"></path><path d="M0 601L23.3 601C46.7 601 93.3 601 140 601C186.7 601 233.3 601 280 601C326.7 601 373.3 601 420 601C466.7 601 513.3 601 560 601C606.7 601 653.3 601 700 601C746.7 601 793.3 601 840 601C886.7 601 933.3 601 980 601C1026.7 601 1073.3 601 1120 601C1166.7 601 1213.3 601 1260 601C1306.7 601 1353.3 601 1376.7 601L1400 601L1400 491L1376.7 488C1353.3 485 1306.7 479 1260 482C1213.3 485 1166.7 497 1120 498C1073.3 499 1026.7 489 980 476C933.3 463 886.7 447 840 450C793.3 453 746.7 475 700 477C653.3 479 606.7 461 560 459C513.3 457 466.7 471 420 468C373.3 465 326.7 445 280 445C233.3 445 186.7 465 140 472C93.3 479 46.7 473 23.3 470L0 467Z" fill="#0e132c"></path></svg>