<svg id="visual" viewBox="0 0 900 600" width="900" height="600" xmlns="http://www.w3.org/2000/svg" xmlns:xlink="http://www.w3.org/1999/xlink" version="1.1"><path d="M0 157L13.7 155C27.3 153 54.7 149 82 155C109.3 161 136.7 177 163.8 171C191 165 218 137 245.2 130C272.3 123 299.7 137 327 139C354.3 141 381.7 131 409 129C436.3 127 463.7 133 491 133C518.3 133 545.7 127 573 124C600.3 121 627.7 121 654.8 129C682 137 709 153 736.2 153C763.3 153 790.7 137 818 129C845.3 121 872.7 121 886.3 121L900 121L900 0L886.3 0C872.7 0 845.3 0 818 0C790.7 0 763.3 0 736.2 0C709 0 682 0 654.8 0C627.7 0 600.3 0 573 0C545.7 0 518.3 0 491 0C463.7 0 436.3 0 409 0C381.7 0 354.3 0 327 0C299.7 0 272.3 0 245.2 0C218 0 191 0 163.8 0C136.7 0 109.3 0 82 0C54.7 0 27.3 0 13.7 0L0 0Z" fill="#051833"></path><path d="M0 193L13.7 193C27.3 193 54.7 193 82 198C109.3 203 136.7 213 163.8 206C191 199 218 175 245.2 171C272.3 167 299.7 183 327 185C354.3 187 381.7 175 409 170C436.3 165 463.7 167 491 166C518.3 165 545.7 161 573 158C600.3 155 627.7 153 654.8 161C682 169 709 187 736.2 189C763.3 191 790.7 177 818 172C845.3 167 872.7 171 886.3 173L900 175L900 119L886.3 119C872.7 119 845.3 119 818 127C790.7 135 763.3 151 736.2 151C709 151 682 135 654.8 127C627.7 119 600.3 119 573 122C545.7 125 518.3 131 491 131C463.7 131 436.3 125 409 127C381.7 129 354.3 139 327 137C299.7 135 272.3 121 245.2 128C218 135 191 163 163.8 169C136.7 175 109.3 159 82 153C54.7 147 27.3 151 13.7 153L0 155Z" fill="#0a234c"></path><path d="M0 271L13.7 273C27.3 275 54.7 279 82 283C109.3 287 136.7 291 163.8 283C191 275 218 255 245.2 254C272.3 253 299.7 271 327 269C354.3 267 381.7 245 409 243C436.3 241 463.7 259 491 259C518.3 259 545.7 241 573 237C600.3 233 627.7 243 654.8 252C682 261 709 269 736.2 267C763.3 265 790.7 253 818 252C845.3 251 872.7 261 886.3 266L900 271L900 173L886.3 171C872.7 169 845.3 165 818 170C790.7 175 763.3 189 736.2 187C709 185 682 167 654.8 159C627.7 151 600.3 153 573 156C545.7 159 518.3 163 491 164C463.7 165 436.3 163 409 168C381.7 173 354.3 185 327 183C299.7 181 272.3 165 245.2 169C218 173 191 197 163.8 204C136.7 211 109.3 201 82 196C54.7 191 27.3 191 13.7 191L0 191Z" fill="#162f66"></path><path d="M0 343L13.7 343C27.3 343 54.7 343 82 348C109.3 353 136.7 363 163.8 359C191 355 218 337 245.2 337C272.3 337 299.7 355 327 352C354.3 349 381.7 325 409 320C436.3 315 463.7 329 491 330C518.3 331 545.7 319 573 317C600.3 315 627.7 323 654.8 327C682 331 709 331 736.2 326C763.3 321 790.7 311 818 311C845.3 311 872.7 321 886.3 326L900 331L900 269L886.3 264C872.7 259 845.3 249 818 250C790.7 251 763.3 263 736.2 265C709 267 682 259 654.8 250C627.7 241 600.3 231 573 235C545.7 239 518.3 257 491 257C463.7 257 436.3 239 409 241C381.7 243 354.3 265 327 267C299.7 269 272.3 251 245.2 252C218 253 191 273 163.8 281C136.7 289 109.3 285 82 281C54.7 277 27.3 273 13.7 271L0 269Z" fill="#24377b"></path><path d="M0 397L13.7 397C27.3 397 54.7 397 82 400C109.3 403 136.7 409 163.8 404C191 399 218 383 245.2 383C272.3 383 299.7 399 327 399C354.3 399 381.7 383 409 377C436.3 371 463.7 375 491 373C518.3 371 545.7 363 573 362C600.3 361 627.7 367 654.8 372C682 377 709 381 736.2 379C763.3 377 790.7 369 818 369C845.3 369 872.7 377 886.3 381L900 385L900 329L886.3 324C872.7 319 845.3 309 818 309C790.7 309 763.3 319 736.2 324C709 329 682 329 654.8 325C627.7 321 600.3 313 573 315C545.7 317 518.3 329 491 328C463.7 327 436.3 313 409 318C381.7 323 354.3 347 327 350C299.7 353 272.3 335 245.2 335C218 335 191 353 163.8 357C136.7 361 109.3 351 82 346C54.7 341 27.3 341 13.7 341L0 341Z" fill="#24377b"></path><path d="M0 535L13.7 531C27.3 527 54.7 519 82 516C109.3 513 136.7 515 163.8 515C191 515 218 513 245.2 515C272.3 517 299.7 523 327 526C354.3 529 381.7 529 409 525C436.3 521 463.7 513 491 511C518.3 509 545.7 513 573 517C600.3 521 627.7 525 654.8 523C682 521 709 513 736.2 509C763.3 505 790.7 505 818 509C845.3 513 872.7 521 886.3 525L900 529L900 383L886.3 379C872.7 375 845.3 367 818 367C790.7 367 763.3 375 736.2 377C709 379 682 375 654.8 370C627.7 365 600.3 359 573 360C545.7 361 518.3 369 491 371C463.7 373 436.3 369 409 375C381.7 381 354.3 397 327 397C299.7 397 272.3 381 245.2 381C218 381 191 397 163.8 402C136.7 407 109.3 401 82 398C54.7 395 27.3 395 13.7 395L0 395Z" fill="#162f66"></path><path d="M0 571L13.7 571C27.3 571 54.7 571 82 570C109.3 569 136.7 567 163.8 565C191 563 218 561 245.2 560C272.3 559 299.7 559 327 561C354.3 563 381.7 567 409 567C436.3 567 463.7 563 491 562C518.3 561 545.7 563 573 564C600.3 565 627.7 565 654.8 564C682 563 709 561 736.2 559C763.3 557 790.7 555 818 557C845.3 559 872.7 565 886.3 568L900 571L900 527L886.3 523C872.7 519 845.3 511 818 507C790.7 503 763.3 503 736.2 507C709 511 682 519 654.8 521C627.7 523 600.3 519 573 515C545.7 511 518.3 507 491 509C463.7 511 436.3 519 409 523C381.7 527 354.3 527 327 524C299.7 521 272.3 515 245.2 513C218 511 191 513 163.8 513C136.7 513 109.3 511 82 514C54.7 517 27.3 525 13.7 529L0 533Z" fill="#0a234c"></path><path d="M0 601L13.7 601C27.3 601 54.7 601 82 601C109.3 601 136.7 601 163.8 601C191 601 218 601 245.2 601C272.3 601 299.7 601 327 601C354.3 601 381.7 601 409 601C436.3 601 463.7 601 491 601C518.3 601 545.7 601 573 601C600.3 601 627.7 601 654.8 601C682 601 709 601 736.2 601C763.3 601 790.7 601 818 601C845.3 601 872.7 601 886.3 601L900 601L900 569L886.3 566C872.7 563 845.3 557 818 555C790.7 553 763.3 555 736.2 557C709 559 682 561 654.8 562C627.7 563 600.3 563 573 562C545.7 561 518.3 559 491 560C463.7 561 436.3 565 409 565C381.7 565 354.3 561 327 559C299.7 557 272.3 557 245.2 558C218 559 191 561 163.8 563C136.7 565 109.3 567 82 568C54.7 569 27.3 569 13.7 569L0 569Z" fill="#051833"></path></svg>